# xmcd
#
# Track frame offsets:
#	150
#	9788
#	19223
#	32416
#	41296
#	54249
#	65267
#	84077
#	95500
#	107118
#	121338
#
# Disc length: 1740 seconds
#
# Revision: 1
# Processed by: cddbd v1.5.2PL0 Copyright (c) Steve Scherf et al.
# Submitted via: audiograbber 1.83.01
#
DISCID=7106ca0b
DTITLE=Tom T. Hall - Greatest Hits Vol. 2
DYEAR=1975
DGENRE=Country
TTITLE0=Country Is
TTITLE1=I Love
TTITLE2=The Little Lady Preacher
TTITLE3=Sneaky Snake
TTITLE4=I Like Beer
TTITLE5=Ravishing Ruby
TTITLE6=Old Dogs-Children and Watermelon Wine
TTITLE7=Deal
TTITLE8=Who's Gonna Feed Them Hogs
TTITLE9=That Song Is Driving Me Crazy
TTITLE10=I Care
EXTD=
EXTT0=
EXTT1=
EXTT2=
EXTT3=
EXTT4=
EXTT5=
EXTT6=
EXTT7=
EXTT8=
EXTT9=
EXTT10=
PLAYORDER=
